<?xml version="1.0" encoding="UTF-8" standalone="no"?>
<!DOCTYPE svg PUBLIC "-//W3C//DTD SVG 1.1//EN"
 "http://www.w3.org/Graphics/SVG/1.1/DTD/svg11.dtd">
<!-- Generated by graphviz version 3.0.0 (20220413.0242)
 -->
<!-- Title: main.h Pages: 1 -->
<svg width="246pt" height="84pt"
 viewBox="0.00 0.00 246.00 84.00" xmlns="http://www.w3.org/2000/svg" xmlns:xlink="http://www.w3.org/1999/xlink">
<g id="graph0" class="graph" transform="scale(1 1) rotate(0) translate(4 80)">
<title>main.h</title>
<polygon fill="white" stroke="transparent" points="-4,4 -4,-80 242,-80 242,4 -4,4"/>
<!-- Node1 -->
<g id="node1" class="node">
<title>Node1</title>
<g id="a_node1"><a xlink:title="This is brief">
<polygon fill="#bfbfbf" stroke="black" points="106.5,-56.5 106.5,-75.5 151.5,-75.5 151.5,-56.5 106.5,-56.5"/>
<text text-anchor="middle" x="129" y="-63.5" font-family="Helvetica,sans-Serif" font-size="10.00">main.h</text>
</a>
</g>
</g>
<!-- Node2 -->
<g id="node2" class="node">
<title>Node2</title>
<g id="a_node2"><a xlink:href="apache_8h.html" target="_top" xlink:title="This is brief">
<polygon fill="white" stroke="black" points="0,-0.5 0,-19.5 56,-19.5 56,-0.5 0,-0.5"/>
<text text-anchor="middle" x="28" y="-7.5" font-family="Helvetica,sans-Serif" font-size="10.00">apache.h</text>
</a>
</g>
</g>
<!-- Node1&#45;&gt;Node2 -->
<g id="edge1" class="edge">
<title>Node1&#45;&gt;Node2</title>
<path fill="none" stroke="midnightblue" d="M112.77,-56.32C96.65,-47.7 71.7,-34.36 53.04,-24.39"/>
<polygon fill="midnightblue" stroke="midnightblue" points="54.66,-21.28 44.19,-19.65 51.36,-27.46 54.66,-21.28"/>
</g>
<!-- Node3 -->
<g id="node3" class="node">
<title>Node3</title>
<g id="a_node3"><a xlink:href="agpl3_8h.html" target="_top" xlink:title="This is brief">
<polygon fill="white" stroke="black" points="74.5,-0.5 74.5,-19.5 121.5,-19.5 121.5,-0.5 74.5,-0.5"/>
<text text-anchor="middle" x="98" y="-7.5" font-family="Helvetica,sans-Serif" font-size="10.00">agpl3.h</text>
</a>
</g>
</g>
<!-- Node1&#45;&gt;Node3 -->
<g id="edge2" class="edge">
<title>Node1&#45;&gt;Node3</title>
<path fill="none" stroke="midnightblue" d="M123.88,-56.08C119.59,-48.61 113.34,-37.72 108.06,-28.52"/>
<polygon fill="midnightblue" stroke="midnightblue" points="111.04,-26.68 103.02,-19.75 104.97,-30.17 111.04,-26.68"/>
</g>
<!-- Node4 -->
<g id="node4" class="node">
<title>Node4</title>
<g id="a_node4"><a xlink:href="gpl3_8h.html" target="_top" xlink:title="This is brief">
<polygon fill="white" stroke="black" points="140,-0.5 140,-19.5 182,-19.5 182,-0.5 140,-0.5"/>
<text text-anchor="middle" x="161" y="-7.5" font-family="Helvetica,sans-Serif" font-size="10.00">gpl3.h</text>
</a>
</g>
</g>
<!-- Node1&#45;&gt;Node4 -->
<g id="edge3" class="edge">
<title>Node1&#45;&gt;Node4</title>
<path fill="none" stroke="midnightblue" d="M134.28,-56.08C138.71,-48.61 145.16,-37.72 150.62,-28.52"/>
<polygon fill="midnightblue" stroke="midnightblue" points="153.73,-30.14 155.81,-19.75 147.71,-26.57 153.73,-30.14"/>
</g>
<!-- Node5 -->
<g id="node5" class="node">
<title>Node5</title>
<g id="a_node5"><a xlink:href="mit_8h.html" target="_top" xlink:title="This is brief">
<polygon fill="white" stroke="black" points="200,-0.5 200,-19.5 238,-19.5 238,-0.5 200,-0.5"/>
<text text-anchor="middle" x="219" y="-7.5" font-family="Helvetica,sans-Serif" font-size="10.00">mit.h</text>
</a>
</g>
</g>
<!-- Node1&#45;&gt;Node5 -->
<g id="edge4" class="edge">
<title>Node1&#45;&gt;Node5</title>
<path fill="none" stroke="midnightblue" d="M143.46,-56.32C157.5,-47.9 179.05,-34.97 195.54,-25.07"/>
<polygon fill="midnightblue" stroke="midnightblue" points="197.8,-27.8 204.58,-19.65 194.2,-21.8 197.8,-27.8"/>
</g>
</g>
</svg>
